<?xml version="1.0" encoding="UTF-8"?> <svg xmlns="http://www.w3.org/2000/svg" width="80" height="40" viewBox="0 0 80 40"><defs><style>.a{fill:none;}.b{fill:#7d888e;}</style></defs><g transform="translate(-108 -783)"><rect class="a" width="80" height="40" transform="translate(108 783)"></rect><g transform="translate(113 787)"><g transform="translate(14.882 14.556)"><path class="b" d="M34.155,47.194v5.073H32.546V39.741h4.268a3.859,3.859,0,0,1,2.764,1.084,3.62,3.62,0,0,1,0,5.3,3.854,3.854,0,0,1-2.764,1.067Zm0-5.913v4.373H36.85a2.127,2.127,0,0,0,1.592-.647A2.2,2.2,0,0,0,36.85,41.28Z" transform="translate(-32.546 -39.741)"></path><path class="b" d="M46.905,44.2a3.994,3.994,0,0,1,2.817.953,3.383,3.383,0,0,1,1.032,2.615v5.283H49.215v-1.19h-.07a3.071,3.071,0,0,1-2.659,1.47,3.454,3.454,0,0,1-2.371-.84,2.678,2.678,0,0,1-.953-2.1,2.548,2.548,0,0,1,1.006-2.117,4.239,4.239,0,0,1,2.685-.788,4.757,4.757,0,0,1,2.361.525v-.367a1.831,1.831,0,0,0-.665-1.425,2.281,2.281,0,0,0-1.556-.586,2.466,2.466,0,0,0-2.135,1.137l-1.416-.892A3.949,3.949,0,0,1,46.905,44.2Zm-2.081,6.227a1.284,1.284,0,0,0,.533,1.05,1.964,1.964,0,0,0,1.252.42,2.568,2.568,0,0,0,1.81-.752,2.357,2.357,0,0,0,.8-1.767,3.308,3.308,0,0,0-2.1-.595,2.728,2.728,0,0,0-1.636.473A1.4,1.4,0,0,0,44.824,50.427Z" transform="translate(-34.415 -40.526)"></path><path class="b" d="M54.584,43.978h1.54v1.4h.07a2.888,2.888,0,0,1,2.956-1.645l.332.035v1.679l-.717-.07a2.569,2.569,0,0,0-1.846.691,2.319,2.319,0,0,0-.726,1.757v4.724h-1.61Zm10.042,8.712a2.445,2.445,0,0,1-1.74-.648,2.4,2.4,0,0,1-.709-1.8V45.448h-1.5v-1.47h1.5V41.355h1.609v2.623h2.1v1.47h-2.1v4.268a1.56,1.56,0,0,0,.333,1.163,1.078,1.078,0,0,0,.751.307,1.64,1.64,0,0,0,.377-.044,2.045,2.045,0,0,0,.341-.114l.508,1.434A4.345,4.345,0,0,1,64.626,52.691Z" transform="translate(-36.426 -40.025)"></path><path class="b" d="M70.274,44.479h1.539v1.19h.07a2.866,2.866,0,0,1,1.129-1.05,3.238,3.238,0,0,1,1.583-.419,3.168,3.168,0,0,1,2.423.9,3.6,3.6,0,0,1,.849,2.563v5.388h-1.61V47.768a1.892,1.892,0,0,0-2.117-2.1,2.011,2.011,0,0,0-1.609.779,2.82,2.82,0,0,0-.648,1.863v4.741H70.274Z" transform="translate(-39.188 -40.526)"></path><path class="b" d="M85.525,53.332a4.1,4.1,0,0,1-3.114-1.3,4.568,4.568,0,0,1-1.224-3.271,4.656,4.656,0,0,1,1.19-3.263,4.278,4.278,0,0,1,6.079-.069,4.929,4.929,0,0,1,1.128,3.455l-.017.175H82.832a2.793,2.793,0,0,0,.84,2.029,2.712,2.712,0,0,0,4.338-.77l1.435.7a4.268,4.268,0,0,1-1.6,1.7A4.426,4.426,0,0,1,85.525,53.332Zm-2.572-5.6h4.916a2.134,2.134,0,0,0-.726-1.478,2.542,2.542,0,0,0-1.758-.586,2.333,2.333,0,0,0-1.566.56A2.677,2.677,0,0,0,82.954,47.733Z" transform="translate(-41.109 -40.526)"></path><path class="b" d="M94.771,53.059h-1.61V44.487H94.7v1.4h.07a2.327,2.327,0,0,1,1.005-1.163,2.8,2.8,0,0,1,1.5-.481,3.017,3.017,0,0,1,1.19.21l-.49,1.557a2.667,2.667,0,0,0-.944-.123,2.082,2.082,0,0,0-1.584.735,2.456,2.456,0,0,0-.673,1.714Z" transform="translate(-43.217 -40.533)"></path></g><path class="b" d="M36.1,30.08v1.093h2.614a2.31,2.31,0,0,1-.859,1.609,2.932,2.932,0,0,1-3.8-.283,2.971,2.971,0,0,1,0-4.117,2.742,2.742,0,0,1,2.039-.849,2.8,2.8,0,0,1,1.971.78l.77-.77a3.849,3.849,0,0,0-2.741-1.1,4.025,4.025,0,0,0-2.029.546,3.955,3.955,0,0,0-1.493,1.473,3.945,3.945,0,0,0,1.493,5.434,4.018,4.018,0,0,0,2.029.547,3.732,3.732,0,0,0,2.683-1.015,3.914,3.914,0,0,0,1-3.346Z" transform="translate(-17.576 -22.843)"></path><path class="b" d="M44.566,29.9a2.506,2.506,0,0,0-1.844.741,2.653,2.653,0,1,0,1.844-.741Zm1.025,3.687a1.4,1.4,0,0,1-2.059,0,1.568,1.568,0,0,1-.419-1.112,1.524,1.524,0,0,1,.419-1.111,1.415,1.415,0,0,1,2.068,0,1.521,1.521,0,0,1,.419,1.111A1.569,1.569,0,0,1,45.591,33.586Z" transform="translate(-19.324 -23.452)"></path><rect class="b" width="1.132" height="7.571" transform="translate(39.651 3.871)"></rect><path class="b" d="M51.41,29.9a2.506,2.506,0,0,0-1.844.741A2.653,2.653,0,1,0,51.41,29.9Zm1.024,3.687a1.4,1.4,0,0,1-2.058,0,1.568,1.568,0,0,1-.419-1.112,1.524,1.524,0,0,1,.419-1.111,1.415,1.415,0,0,1,2.068,0,1.521,1.521,0,0,1,.419,1.111A1.566,1.566,0,0,1,52.434,33.586Z" transform="translate(-20.529 -23.452)"></path><path class="b" d="M67.2,34.035a1.319,1.319,0,0,1-1.249-.78l3.444-1.425-.117-.292a2.848,2.848,0,0,0-.356-.663,2.568,2.568,0,0,0-.5-.522,2.13,2.13,0,0,0-.625-.336,2.2,2.2,0,0,0-.722-.117,2.312,2.312,0,0,0-1.737.732,2.6,2.6,0,0,0-.692,1.843,2.509,2.509,0,0,0,.732,1.835,2.6,2.6,0,0,0,3.971-.4l-.878-.585A1.463,1.463,0,0,1,67.2,34.035Zm-1.044-2.712a1.325,1.325,0,0,1,.956-.429,1.169,1.169,0,0,1,.6.152.8.8,0,0,1,.361.395l-2.3.957A1.407,1.407,0,0,1,66.156,31.323Z" transform="translate(-23.314 -23.452)"></path><path class="b" d="M59.532,30.474h-.039a1.681,1.681,0,0,0-1.356-.575,2.349,2.349,0,0,0-1.737.761,2.629,2.629,0,0,0,0,3.639,2.386,2.386,0,0,0,1.737.751,1.668,1.668,0,0,0,1.356-.586h.039v.264q0,1.619-1.375,1.619a1.272,1.272,0,0,1-.781-.254,1.584,1.584,0,0,1-.517-.663l-.985.41a2.607,2.607,0,0,0,.371.619,2.344,2.344,0,0,0,.522.479,2.582,2.582,0,0,0,.649.312,2.441,2.441,0,0,0,.742.112,2.338,2.338,0,0,0,1.8-.7,2.807,2.807,0,0,0,.649-1.985V30.055H59.532ZM59.209,33.6a1.27,1.27,0,0,1-.976.439,1.346,1.346,0,0,1-1.024-.449,1.687,1.687,0,0,1,.01-2.215,1.348,1.348,0,0,1,1.014-.458,1.239,1.239,0,0,1,.976.449,1.758,1.758,0,0,1,0,2.234Z" transform="translate(-21.734 -23.452)"></path><rect class="b" width="8.21" height="31.197" transform="translate(0 0)"></rect></g></g></svg> 